<svg width="409" height="186" viewBox="0 0 409 186" fill="none" xmlns="http://www.w3.org/2000/svg">
<path d="M54.1288 41.5C24.2973 41.5 0 65.5054 0 94.7965V95.0371L9.14057 100.323H9.38155C15.1567 96.4809 22.1368 95.0371 29.1086 96.2403C33.9198 97.2028 38.4901 99.3602 42.0965 102.721L43.7833 104.165L44.7472 102.248C45.7112 100.331 46.6751 98.6466 47.6307 96.9622C48.1126 96.2403 48.5946 95.759 49.0766 95.0454L50.0405 93.8422L48.8356 92.8797C43.7833 88.7972 37.7672 85.9179 31.2691 84.7147C25.0119 83.5115 18.7548 83.7522 12.9879 85.6772C17.3255 66.7086 34.1608 53.2662 54.1288 53.2662C65.4382 53.2662 76.0246 57.5893 83.9603 65.5137C89.7355 71.0317 93.5828 78.0018 95.2697 85.6772C91.6633 84.4741 87.8076 83.9928 83.9603 83.9928H83.2374C81.7915 83.9928 80.3539 84.2334 78.6671 84.2334H78.4261C77.9441 84.2334 77.2212 84.4741 76.7392 84.4741C75.7753 84.7147 75.0524 84.7147 74.0968 84.9553L73.3739 85.196C72.6509 85.4366 71.928 85.6772 71.205 85.9179H70.9641C69.2772 86.3991 67.8397 87.121 66.1528 87.8347C65.4299 88.0753 64.7069 88.5566 63.984 89.0378H63.743C60.1366 91.1952 56.7629 93.8422 54.1205 97.2028L53.8795 97.6841C53.1566 98.6466 52.6746 99.3685 52.1927 99.8415C51.7107 100.323 51.4697 101.045 50.9878 101.758L50.7468 102.24C50.2648 102.961 50.0239 103.683 49.7829 104.156V104.397C49.0599 105.841 48.337 107.517 47.855 109.201V109.442C46.6502 113.284 45.9272 117.366 45.9272 121.689V126.253C45.9272 126.735 46.1682 127.456 46.1682 127.938C47.3731 133.696 50.0155 139.223 54.1039 144.259L54.3448 144.5L54.5858 144.259C56.2727 142.343 60.12 136.335 60.602 132.734C58.6742 129.133 57.7185 125.05 57.7185 121.208C57.7185 107.766 68.305 96.4809 82.0158 95.759H82.9798C88.514 95.5184 94.0482 97.2028 98.6185 100.323H98.8594L108 95.0371V94.7965C108 80.6322 102.466 67.1898 92.1203 57.1081C82.0408 47.018 68.5709 41.5 54.1288 41.5Z" fill="#FF0077"/>
<path d="M142 93H189M165.5 116.5V69.5" stroke="#68737E" stroke-width="9" stroke-linecap="round" stroke-linejoin="round"/>
<path d="M240.773 104.458C240.773 109.349 236.778 113.345 231.887 113.345C226.995 113.345 223 109.349 223 104.458C223 99.5667 226.995 95.5712 231.887 95.5712H240.773V104.458Z" fill="#E01E5A"/>
<path d="M245.251 104.458C245.251 99.5667 249.247 95.5712 254.138 95.5712C259.029 95.5712 263.024 99.5667 263.024 104.458V126.709C263.024 131.6 259.029 135.596 254.138 135.596C249.247 135.596 245.251 131.6 245.251 126.709V104.458Z" fill="#E01E5A"/>
<path d="M254.138 68.7733C249.247 68.7733 245.251 64.7778 245.251 59.8867C245.251 54.9956 249.247 51 254.138 51C259.029 51 263.024 54.9956 263.024 59.8867V68.7733H254.138Z" fill="#36C5F0"/>
<path d="M254.138 73.2511C259.029 73.2511 263.024 77.2467 263.024 82.1378C263.024 87.0289 259.029 91.0244 254.138 91.0244H231.887C226.995 91.0244 223 87.0289 223 82.1378C223 77.2467 226.995 73.2511 231.887 73.2511H254.138Z" fill="#36C5F0"/>
<path d="M289.822 82.1378C289.822 77.2467 293.818 73.2511 298.709 73.2511C303.6 73.2511 307.595 77.2467 307.595 82.1378C307.595 87.0289 303.6 91.0244 298.709 91.0244H289.822V82.1378Z" fill="#2EB67D"/>
<path d="M285.344 82.1378C285.344 87.0289 281.349 91.0244 276.458 91.0244C271.566 91.0244 267.571 87.0289 267.571 82.1378V59.8867C267.571 54.9956 271.566 51 276.458 51C281.349 51 285.344 54.9956 285.344 59.8867V82.1378Z" fill="#2EB67D"/>
<path d="M276.457 117.822C281.349 117.822 285.344 121.818 285.344 126.709C285.344 131.6 281.349 135.596 276.457 135.596C271.566 135.596 267.571 131.6 267.571 126.709V117.822H276.457Z" fill="#ECB22E"/>
<path d="M276.458 113.345C271.566 113.345 267.571 109.349 267.571 104.458C267.571 99.5667 271.566 95.5712 276.458 95.5712H298.709C303.6 95.5712 307.595 99.5667 307.595 104.458C307.595 109.349 303.6 113.345 298.709 113.345H276.458Z" fill="#ECB22E"/>
</svg>